<svg version="1.1" id="Layer_1" xmlns="http://www.w3.org/2000/svg" xmlns:xlink="http://www.w3.org/1999/xlink" x="0px" y="0px"
	 viewBox="0 0 612 792" enable-background="new 0 0 612 792" xml:space="preserve">
<g transform="matrix(3.665,0,0,3.665,-330.5,-309.2)">
	<path stroke="#000000" stroke-width="1.3643" d="M192.5,219.2c1.2,2.3,3.1,52.1,11.7,58.7
		c7.4,5.9,2.7,13.5-3.9,13.8c-9,0.8-20.7-53.4-19.3-56.8"/>
	<path stroke="#000000" stroke-width="1.3643" d="M155.5,219.2c-1.4,2.3-3.1,52.1-11.7,58.7
		c-7.4,5.9-2.7,13.5,3.7,13.8c9.2,0.8,20.7-53.4,19.3-56.8"/>
	<path stroke="#000000" stroke-width="1.3643" d="M181.6,231.9c1,2.3-2,45.2-1.6,55.2c0.4,12.5-3.1,12.5-9,11.7
		c-8.4-0.4-3.7-51.5-2-54.2"/>
</g>
<path stroke="#000000" stroke-width="5" stroke-linecap="round" stroke-linejoin="round" d="M374.7,183.1
	c0,0-12.7,45.2-33.7,64.4c-11.3-1.8-22.8-2.5-34.7-2.5c-13.8,0-27.3,1.2-40.6,3.5c-21.3-19.1-34.3-64-34.3-64l-41,14.8
	c0,0,16.4,42.7,11.3,70C128.4,305.4,78.3,378.5,78.3,463c0,120.5,102.2,218,228,218s227.4-97.5,227.4-218
	c0-86.4-52.3-161.1-128.3-196.4c-4.9-27.1,10.7-69,10.7-69L374.7,183.1L374.7,183.1z"/>
<g>
	<path id="i" stroke="#000000" stroke-width="5" stroke-linecap="round" stroke-linejoin="round" d="M243.5,627.4
		c-3.7,9,19.9,47.4-7.2,76.6c-23.6,25.4-2.1,49.7,21.5,47c33.5-1.8,42.9-62.2,36.5-73.3"/>
	<path id="h" stroke="#000000" stroke-width="5" stroke-linecap="round" stroke-linejoin="round" d="M159,593.5
		c-3.5,9,19.3,47.4-7.8,76.6c-23,25.4-2.1,49.7,22.2,47.2c32.8-2,42.7-62.4,35.7-73.5"/>
	<path id="i_1_" stroke="#000000" stroke-width="5" stroke-linecap="round" stroke-linejoin="round" d="
			M372.6,627.4c3.7,9-19.9,47.4,7.2,76.6c23.6,25.4,2.1,49.7-21.5,47c-33.5-1.8-42.9-62.2-36.5-73.3"/>
	<path id="h_1_" stroke="#000000" stroke-width="5" stroke-linecap="round" stroke-linejoin="round" d="
			M453.1,593.5c3.5,9-19.3,47.4,7.8,76.6c23,25.4,2.1,49.7-22.2,47.2c-32.8-2-42.7-62.4-35.7-73.5"/>
</g>
<g>
	<path fill="#AFACAC" d="M173,437.1c-5.9,24.5-23,41.4-38.2,37.6c-15.2-3.8-22.8-26.7-16.9-51.2c5.9-24.5,23-41.4,38.2-37.6
		C171.3,389.6,178.9,412.5,173,437.1z"/>
	<path fill="#AFACAC" d="M335.7,526.6c0,30.6-22.9,55.3-51.2,55.3c-28.3,0-51.2-24.8-51.2-55.3c0-30.6,22.9-55.3,51.2-55.3
		C312.8,471.2,335.7,496,335.7,526.6z"/>
	<path fill="#AFACAC" d="M497.8,431c5,16.8,1.4,32.4-8.1,34.9c-9,2.3-20.1-7.8-25.6-23.4c-5.8-16.5-3.2-33.1,5.9-36.9
		c9.1-3.9,21.2,6.4,27,22.9C497.3,429.3,497.6,430.2,497.8,431z"/>
	<path fill="#AFACAC" d="M421.9,543.7c-0.5,17.6-12.3,31.3-26.2,30.6c-13.2-0.7-23.7-14-24.3-30.6c-0.5-17.6,10.3-32.4,24.3-33.1
		c13.9-0.7,25.7,13,26.2,30.6C422,542.1,422,542.9,421.9,543.7z"/>
	<path fill="#AFACAC" d="M414.1,413.8c0,25.2-18,45.6-40.2,45.6c-22.2,0-40.1-20.4-40.2-45.6c0-25.2,18-45.6,40.2-45.6
		S414.1,388.6,414.1,413.8C414.1,413.8,414.1,413.8,414.1,413.8z"/>
	<path fill="#AFACAC" d="M203.5,511.7c7.8,14.3,7.4,29.4-0.8,33.7c-7.9,4.2-20.3-3.2-28.2-16.7c-8.2-14.1-8.5-29.5-0.7-34.6
		c7.8-5.1,20.8,2.2,29,16.3C203,510.8,203.2,511.3,203.5,511.7z"/>
</g>
<g transform="translate(-406.6,461.3)">
	<path stroke="#000000" stroke-width="5" stroke-linecap="round" stroke-linejoin="round" d="M698.3-358.3
		c0,54-43.5,97.9-97.9,97.9c-53.8,0-97.7-43.9-97.7-97.9s43.9-97.9,97.7-97.9C654.8-456.2,698.3-412.3,698.3-358.3z"/>
	<path fill="#FFFFFF" stroke="#000000" stroke-width="5" stroke-linecap="round" stroke-linejoin="round" d="M669.6-376.1
		c0,26.5-21.5,48.2-47.8,48.2c-27.3,0-48.8-21.6-48.8-48.2s21.5-48,48.8-48C648.1-424.1,669.6-402.6,669.6-376.1z"/>
	<path fill="#000000" d="M649.5-367.5c0,8.8-7,16-16.4,16c-8.6,0-15.6-7.2-15.6-16c0-8.8,7-16,15.6-16C642.5-383.5,649.5-376.3,649.5-367.5z"/>
	<path id="f_2_" opacity="0.14" enable-background="new    " d="M692.6-391.7c0,1.6,0.8,3.1,0.8,4.5c0,54-44.5,97.9-98.1,97.9
		c-42.1,0-78.6-26.7-92.2-64.4c2.1,52.1,45.1,93.4,97.9,93.4c53.6,0,98.1-43.9,98.1-97.9C699-369.8,696.9-381.1,692.6-391.7
		L692.6-391.7z"/>
</g>
<g transform="translate(-406.6,461.3)">
	<path stroke="#000000" stroke-width="5" stroke-linecap="round" stroke-linejoin="round" d="M726.9-358.3
		c0,54,43.5,97.9,97.9,97.9c53.4,0,97.9-43.9,97.1-97.9c0.8-54-43.7-97.9-97.1-97.9C770.4-456.2,726.9-412.3,726.9-358.3z"/>
	<path fill="#FFFFFF" stroke="#000000" stroke-width="5" stroke-linecap="round" stroke-linejoin="round" d="M756.2-376.1
		c0,26.5,21.5,48.2,48,48.2c26.3,0,47.8-21.6,47.8-48.2s-21.5-48-47.8-48C777.6-424.1,756.2-402.6,756.2-376.1z"/>
	<path fill="#000000" d="M776.3-367.5c0,8.8,7.2,16,15.8,16c9.2,0,16.4-7.2,16.4-16c0-8.8-7.2-16-16.4-16C783.5-383.5,776.3-376.3,776.3-367.5z"/>
	<path id="f_1_" opacity="0.14" enable-background="new    " d="M912.2-391.5c0,1.6,0.8,3.1,0.8,4.5c0,54-44.5,97.9-98.1,97.9
			c-42.1,0-78.6-26.7-92.2-64.4c2.1,52.1,45.1,93.4,97.9,93.4c53.6,0,98.1-43.9,98.1-97.9C918.6-369.6,916.5-380.9,912.2-391.5
			L912.2-391.5z"/>
</g>
<g transform="matrix(3.665,0,0,3.665,-328.5,-580.7)" opacity="0.14">
	<path d="M231.6,264.3v2.7c0,32.8-27.7,59.5-62,59.5c-26.9,0-49.7-16.4-58.4-39.2c1.5,31.6,28.8,56.8,62.1,56.8
		c34.3,0,62-26.5,62-59.5C235.3,277.5,234,270.5,231.6,264.3z"/>
	<g transform="translate(-.2188 166)">
		<path id="j" d="M156,163.5c-1,2.4,5.5,12.9-2,20.9c-6.4,6.9-0.6,13.6,5.9,12.9c9.2-0.5,11.7-17,9.9-20"/>
		<path id="g" d="M132.9,154.2c-1,2.4,5.3,12.9-2.1,20.9c-6.3,6.9-0.6,13.6,6,12.9c9-0.5,11.7-17,9.8-20"/>
		<path id="j_1_" d="M191.1,163.5c1,2.4-5.5,12.9,2,20.9c6.4,6.9,0.6,13.6-5.9,12.9c-9.2-0.5-11.7-17-9.9-20"/>
		<path id="g_1_" d="M212.9,154.2c1,2.4-5.3,12.9,2.1,20.9c6.3,6.9,0.6,13.6-6,12.9c-9-0.5-11.7-17-9.8-20"/>
	</g>
</g>
</svg>