<svg version="1.1" id="Layer_1" xmlns="http://www.w3.org/2000/svg" xmlns:xlink="http://www.w3.org/1999/xlink" x="0px" y="0px"
	 viewBox="0 0 612 792" enable-background="new 0 0 612 792" xml:space="preserve">
<g transform="translate(-478.85 -441.13)">
	<path  stroke="#000000" stroke-width="5" stroke-linecap="round" stroke-linejoin="round" d="M1038.2,741.1c0,18.3-1.6,289.4-4.6,306.7c-23.1,132.4-130.3-20.7-259-20.7
		c-126.7,0-232.6,156.1-257.9,26.8c-3.8-19.2-5.7-292.4-5.7-312.8c0-158,118-286,263.6-286S1038.2,583.2,1038.2,741.1L1038.2,741.1z
		"/>
	
		<linearGradient id="SVGID_1_" gradientUnits="userSpaceOnUse" x1="795.5352" y1="996.4437" x2="777.7852" y2="1052.8137" gradientTransform="matrix(3.4216 0 0 -3.4216 -1935.5835 4050.5281)">
		<stop  offset="0" style="stop-color:#EB7331"/>
		<stop  offset="1" style="stop-color:#CF4913"/>
	</linearGradient>
	<path d="M929.8,642.1c0,79-64,143-143,143s-143-64-143-143s64-143,143-143S929.8,563.2,929.8,642.1
		L929.8,642.1z"/>
	<path fill="#FFFFFF" d="M879.7,633.2c0,54.3-44,98.3-98.3,98.3s-98.3-44-98.3-98.3s44-98.3,98.3-98.3S879.7,578.9,879.7,633.2
		L879.7,633.2z"/>
	<path fill="#2E3436" d="M827.9,633.2c0,25.7-20.8,46.5-46.5,46.5c-25.7,0-46.5-20.8-46.5-46.5s20.8-46.5,46.5-46.5
		C807.1,586.7,827.9,607.5,827.9,633.2L827.9,633.2z"/>
	<path fill="#FFFFFF" d="M815.4,618.9c0,7.9-6.4,14.4-14.4,14.4s-14.4-6.4-14.4-14.4s6.4-14.4,14.4-14.4S815.4,611,815.4,618.9z"/>
	
		<linearGradient id="SVGID_2_" gradientUnits="userSpaceOnUse" x1="1074.35" y1="586.23" x2="1074.35" y2="644.62" gradientTransform="matrix(2.5257 0 0 -2.5257 -1940.0588 2455.5405)">
		<stop  offset="0" style="stop-color:#2E3436"/>
		<stop  offset="1" style="stop-color:#D8571D"/>
	</linearGradient>
	<path fill="#AFACAC" d="M966.7,860.4v25.2c0,8.4-36,15.2-80.8,15.2H661.1c-44.8,0-80.8-6.8-80.8-15.2v-25.2
		C655.4,857.6,904.5,787.6,966.7,860.4z"/>
	<path fill="#FFFFFF" d="M674.9,847.1c-19.3,3.2-37.1,6.2-52.9,8.5c0,0.6-0.1,1.1-0.1,1.7v51.4c0,10.2,6.7,18.5,15.2,18.5h25.3
		c8.4,0,15.2-8.3,15.2-18.5v-51.4C677.5,853.6,676.5,850.1,674.9,847.1z"/>
	<path fill="#2E3436" d="M765.3,868.7c-37.3,0-68.2,13.9-73.2,32h146.3C833.4,882.7,802.6,868.7,765.3,868.7z"/>
	<path fill="#FFFFFF" d="M851,827.4c-4.8,0-9.7,0.1-14.7,0.2c-0.1,0.7-0.1,1.4-0.1,2.1v51.5c0,10.2,6.8,18.5,15.2,18.5h25.2
		c8.4,0,15.2-8.2,15.2-18.5v-51.5c0-0.1,0-0.2,0-0.2C879,828,865.3,827.3,851,827.4L851,827.4z"/>
	<path stroke="#000000" stroke-width="5" stroke-linecap="round" stroke-linejoin="round" d="M602.1,536.9c0,8.4-6.8,15.2-15.2,15.2c-8.4,0-15.2-6.8-15.2-15.2c0-8.4,6.8-15.2,15.2-15.2
		S602.1,528.5,602.1,536.9z"/>
	<path stroke="#000000" stroke-width="5" stroke-linecap="round" stroke-linejoin="round" d="M578.9,577c0,8.4-6.8,15.2-15.2,15.2c-8.4,0-15.2-6.8-15.2-15.2c0-8.4,6.8-15.2,15.2-15.2
		C572.1,561.9,578.9,568.7,578.9,577z"/>
	<path stroke="#000000" stroke-width="5" stroke-linecap="round" stroke-linejoin="round" d="M936.1,519.9c0,8.4,6.8,15.2,15.2,15.2c8.4,0,15.2-6.8,15.2-15.2c0-8.4-6.8-15.2-15.2-15.2
		S936.1,511.5,936.1,519.9z"/>
	<path stroke="#000000" stroke-width="5" stroke-linecap="round" stroke-linejoin="round" d="M959.3,560.1c0,8.4,6.8,15.2,15.2,15.2c8.4,0,15.2-6.8,15.2-15.2c0-8.4-6.8-15.2-15.2-15.2
		C966.1,544.9,959.3,551.7,959.3,560.1z"/>
<path stroke="#000000" stroke-width="5" stroke-linecap="round" stroke-linejoin="round" d="M982.5,595.8c0,8.4,6.8,15.2,15.2,15.2s15.2-6.8,15.2-15.2c0-8.4-6.8-15.2-15.2-15.2
		S982.5,587.4,982.5,595.8z"/>
</g>
</svg>
